<svg id="Layer_1" data-name="Layer 1" xmlns="http://www.w3.org/2000/svg" viewBox="0 0 512 512"><title>Bluetooth</title><path d="M255.995,490.668a21.337,21.337,0,0,1-21.328-21.334V295.861l-94.833,63.222a21.333,21.333,0,0,1-23.667-35.5L217.541,256,116.167,188.417a21.333,21.333,0,0,1,23.667-35.5l94.833,63.222V42.667a21.334,21.334,0,0,1,36.419-15.085l128,128a21.334,21.334,0,0,1-3.252,32.835L294.459,256l101.374,67.583a21.334,21.334,0,0,1,3.252,32.835l-128,128A21.336,21.336,0,0,1,255.995,490.668Zm21.339-194.806V417.83l73.181-73.181Zm0-201.692V216.139l73.181-48.787Z" id="id_101" style="fill: rgb(255, 255, 255);"></path></svg>