<svg xmlns="http://www.w3.org/2000/svg" xmlns:xlink="http://www.w3.org/1999/xlink" viewBox="0 0 64 64"><defs><style>.cls-1{fill:url(#linear-gradient);}.cls-2{fill:url(#linear-gradient-2);}.cls-3{fill:url(#linear-gradient-3);}.cls-4{fill:url(#linear-gradient-4);}</style><linearGradient id="linear-gradient" x1="10.92" y1="33.01" x2="53.1" y2="33.01" gradientUnits="userSpaceOnUse"><stop offset="0" stop-color="#ffffff" id="id_105"></stop><stop offset="1" stop-color="#ffffff" id="id_106"></stop></linearGradient><linearGradient id="linear-gradient-2" x1="25.01" y1="39.66" x2="26.99" y2="39.66" xlink:href="#linear-gradient"></linearGradient><linearGradient id="linear-gradient-3" x1="2.67" y1="49.45" x2="60.12" y2="49.45" xlink:href="#linear-gradient"></linearGradient><linearGradient id="linear-gradient-4" x1="3.88" y1="14.55" x2="61.49" y2="14.55" xlink:href="#linear-gradient"></linearGradient></defs><g id="CONNECTION"><path class="cls-1" d="M49.36,21.19C35.44,1.07,4.13,17.13,12.25,40.1,24.42,69,65.61,47.89,49.36,21.19ZM16.29,43.69a19.34,19.34,0,0,1-1.66-3h3.59a21.89,21.89,0,0,0,8,10.41A19,19,0,0,1,16.29,43.69Zm4.07-3H23a1,1,0,0,0,0-2H19.66a20.07,20.07,0,0,1,0-11.34H44.35a20.25,20.25,0,0,1,0,11.34H29a1,1,0,0,0,0,2H43.65A20.27,20.27,0,0,1,32,52,20.23,20.23,0,0,1,20.36,40.67Zm27.35,3a19.13,19.13,0,0,1-9.84,7.37,21.93,21.93,0,0,0,7.92-10.39h3.58A19.34,19.34,0,0,1,47.71,43.69Zm2.42-5H46.42a22,22,0,0,0,0-11.34h3.71A18.91,18.91,0,0,1,50.13,38.67ZM47.71,22.31a19.34,19.34,0,0,1,1.66,3H45.79a21.93,21.93,0,0,0-7.92-10.39A19.13,19.13,0,0,1,47.71,22.31Zm-4.06,3H20.36A20.27,20.27,0,0,1,32,14,20.23,20.23,0,0,1,43.65,25.33Zm-27.36-3a19.09,19.09,0,0,1,9.89-7.4,21.92,21.92,0,0,0-8,10.42H14.63A19.34,19.34,0,0,1,16.29,22.31Zm-2.42,5h3.72a22,22,0,0,0,0,11.34H13.87a18.91,18.91,0,0,1,0-11.34Z" id="id_101"></path><path class="cls-2" d="M25.08,39.28c-.58,1.8,2.42,1.81,1.84,0A1,1,0,0,0,25.08,39.28Z" id="id_102"></path><path class="cls-3" d="M59.37,38a1,1,0,0,0-1.22.72c-5.79,22.81-36.58,27.53-49,7.6L12,45.21a1,1,0,0,0,.25-1.71L5.51,38.21a1,1,0,0,0-1.61.65L2.68,47.32A1,1,0,0,0,4,48.39L7.27,47.1c13.18,21.74,46.55,16.8,52.82-7.85A1,1,0,0,0,59.37,38ZM4.91,45.89l.72-5,4,3.14Z" id="id_103"></path><path class="cls-4" d="M61.12,15.78a1,1,0,0,0-1-.16l-3.39,1.29C43.57-4.84,10.18.09,3.91,24.75a1,1,0,0,0,1.94.5c5.79-22.79,36.56-27.53,49-7.62l-2.71,1a1,1,0,0,0-.27,1.71l6.62,5.41a1.06,1.06,0,0,0,1,.16,1.08,1.08,0,0,0,.62-.77l1.37-8.44A1,1,0,0,0,61.12,15.78ZM58.4,23.13l-3.94-3.22,4.76-1.8Z" id="id_104"></path></g></svg>