<svg version="1.1" id="Icons" xmlns="http://www.w3.org/2000/svg" xmlns:xlink="http://www.w3.org/1999/xlink" x="0px" y="0px" viewBox="0 0 32 32" style="enable-background:new 0 0 32 32;" xml:space="preserve">
<style type="text/css">
	.st0{fill:none;stroke:#000000;stroke-width:2;stroke-linecap:round;stroke-linejoin:round;stroke-miterlimit:10;}
</style>
<g>
<path d="M30,28H2c-0.3,0-0.7-0.2-0.9-0.5c-0.2-0.3-0.2-0.7,0-1l2-3C3.3,23.2,3.6,23,4,23h24c0.4,0,0.7,0.2,0.9,0.6l2,3
		c0.2,0.3,0.1,0.7,0,1C30.7,27.8,30.3,28,30,28z" id="id_103" style="fill: rgb(255, 255, 255);"></path>
</g>
<path d="M27,5H5C4.4,5,4,5.4,4,6v14c0,0.6,0.4,1,1,1h22c0.6,0,1-0.4,1-1V6C28,5.4,27.6,5,27,5z M11.7,15.3c0.4,0.4,0.4,1,0,1.4
	C11.5,16.9,11.3,17,11,17s-0.5-0.1-0.7-0.3l-3-3c-0.4-0.4-0.4-1,0-1.4l3-3c0.4-0.4,1-0.4,1.4,0s0.4,1,0,1.4L9.4,13L11.7,15.3z
	 M18.9,9.4l-4,8C14.7,17.8,14.4,18,14,18c-0.2,0-0.3,0-0.4-0.1c-0.5-0.2-0.7-0.8-0.4-1.3l4-8c0.2-0.5,0.8-0.7,1.3-0.4
	C18.9,8.4,19.1,9,18.9,9.4z M24.7,13.7l-3,3C21.5,16.9,21.3,17,21,17s-0.5-0.1-0.7-0.3c-0.4-0.4-0.4-1,0-1.4l2.3-2.3l-2.3-2.3
	c-0.4-0.4-0.4-1,0-1.4s1-0.4,1.4,0l3,3C25.1,12.7,25.1,13.3,24.7,13.7z" id="id_104" style="fill: rgb(255, 255, 255);"></path>
</svg>