<svg version="1.1" viewBox="0 0 16 16" xmlns="http://www.w3.org/2000/svg" xmlns:xlink="http://www.w3.org/1999/xlink"><g><path d="M8,0c-4.41113,0 -8,3.58887 -8,8c0,4.41113 3.58887,8 8,8c4.41113,0 8,-3.58887 8,-8c0,-4.41113 -3.58887,-8 -8,-8Zm0,1c3.85986,0 7,3.14014 7,7c0,1.60803 -0.550598,3.08667 -1.46558,4.26984c-3.50952,-1.66095 -7.55933,-1.66095 -11.0688,0c-0.914978,-1.18317 -1.46558,-2.6618 -1.46558,-4.26984c0,-3.85986 3.14014,-7 7,-7Zm-4.83295,12.0516c3.08508,-1.36646 6.58081,-1.36646 9.66589,0c-1.25775,1.2038 -2.95856,1.94843 -4.83295,1.94843c-1.87439,0 -3.5752,-0.744629 -4.83295,-1.94843Z" id="id_101" style="fill: rgb(30, 39, 73);"></path><path d="M3,6c1.6543,0 3,-1.3457 3,-3c0,-1.6543 -1.3457,-3 -3,-3c-1.6543,0 -3,1.3457 -3,3c0,1.6543 1.3457,3 3,3Zm0,-5c1.10303,0 2,0.896973 2,2c0,1.10303 -0.896973,2 -2,2c-1.10303,0 -2,-0.896973 -2,-2c0,-1.10303 0.896973,-2 2,-2Z" transform="translate(5, 4)" id="id_102" style="fill: rgb(30, 39, 73);"></path></g></svg>